<svg xmlns="http://www.w3.org/2000/svg" width="16" height="16" viewBox="0 0 16 16"><defs><style>.cls-1{fill:#95e1d3;fill-rule:evenodd}</style></defs><path id="instagram" class="cls-1" d="M517 9792.01h-12a1.994 1.994 0 0 1-2-1.99v-12a2 2 0 0 1 2-2.01h12a2 2 0 0 1 2 2.01v12a1.994 1.994 0 0 1-2 1.99zm-6-11.1a3.1 3.1 0 0 0-2.811 1.8.177.177 0 0 1-.014.04 2.082 2.082 0 0 0-.08.2.867.867 0 0 0-.036.1c-.023.07-.042.14-.059.21a1.839 1.839 0 0 0-.064.33c0 .03-.011.06-.015.09-.011.11-.018.22-.018.33a3.1 3.1 0 1 0 6.2 0c0-.11-.007-.22-.018-.33 0-.03-.01-.06-.015-.09a1.839 1.839 0 0 0-.064-.33 3.296 3.296 0 0 0-.059-.21.867.867 0 0 0-.036-.1 2.082 2.082 0 0 0-.08-.2.177.177 0 0 1-.014-.04 3.1 3.1 0 0 0-2.817-1.8zm6.2-2.29a.8.8 0 0 0-.8-.8h-1.6a.8.8 0 0 0-.8.8v1.6a.793.793 0 0 0 .8.79h1.6a.793.793 0 0 0 .8-.79v-1.6zm0 4.09h-1.475a4.9 4.9 0 1 1-9.45 0H504.8v6.71a.793.793 0 0 0 .8.79h10.8a.793.793 0 0 0 .8-.79v-6.71z" transform="translate(-503 -9776)"/></svg>